<?xml version="1.0" encoding="utf-8"?>
<!-- Generator: Adobe Illustrator 18.0.0, SVG Export Plug-In . SVG Version: 6.00 Build 0)  -->
<!DOCTYPE svg PUBLIC "-//W3C//DTD SVG 1.1//EN" "http://www.w3.org/Graphics/SVG/1.1/DTD/svg11.dtd">
<svg version="1.1" id="Layer_1" xmlns="http://www.w3.org/2000/svg" xmlns:xlink="http://www.w3.org/1999/xlink" x="0px" y="0px"
	 viewBox="0 0 116 116" enable-background="new 0 0 116 116" xml:space="preserve">
<g>
	<g>
		<path fill-rule="evenodd" clip-rule="evenodd" fill="#030303" d="M57.9,12.9c24.2,0,43.9,19.7,43.9,43.9c0,24.2-19.7,44-43.9,44
			c0-4.7,0-4.7,0-10.3c18.5,0,33.7-15.1,33.7-33.7c0-18.5-15.2-33.7-33.7-33.7c-0.1,0-0.1,0-0.1,0V12.9
			C57.8,12.9,57.9,12.9,57.9,12.9z"/>
	</g>
	<g>
		<g>
			<path fill-rule="evenodd" clip-rule="evenodd" fill="#1F9BDB" d="M57.9,100.8c-24.2,0-43.9-19.4-44-43.6h10.2
				c0.1,18.5,15.2,33.3,33.8,33.3V100.8z"/>
			<path fill-rule="evenodd" clip-rule="evenodd" fill="#26ACBD" d="M57.9,12.7"/>
		</g>
	</g>
	<rect x="57.3" y="-0.2" fill-rule="evenodd" clip-rule="evenodd" fill="#030303" width="1.3" height="116.1"/>
	<rect x="-0.1" y="57.2" fill-rule="evenodd" clip-rule="evenodd" fill="#030303" width="116.1" height="1.3"/>
</g>
</svg>
