<?xml version="1.0" encoding="utf-8"?>
<!-- Generator: Adobe Illustrator 18.0.0, SVG Export Plug-In . SVG Version: 6.00 Build 0)  -->
<!DOCTYPE svg PUBLIC "-//W3C//DTD SVG 1.1//EN" "http://www.w3.org/Graphics/SVG/1.1/DTD/svg11.dtd">
<svg version="1.1" xmlns="http://www.w3.org/2000/svg" xmlns:xlink="http://www.w3.org/1999/xlink" x="0px" y="0px"
	 viewBox="0 0 209 43" enable-background="new 0 0 209 43" xml:space="preserve">
<g id="Layer_1">
	<rect x="2344.1" y="123.9" fill-rule="evenodd" clip-rule="evenodd" fill="#CB3335" width="47" height="53.5"/>
	<rect x="2466.7" y="123.9" fill-rule="evenodd" clip-rule="evenodd" fill="#485FA4" width="47.6" height="53.5"/>
	<rect x="2535.8" y="123.9" fill-rule="evenodd" clip-rule="evenodd" fill="#C05797" width="52" height="53.5"/>
	<rect x="2591.4" y="123.9" fill-rule="evenodd" clip-rule="evenodd" fill="#CF512E" width="52.6" height="53.5"/>
	<rect x="2647.3" y="123.9" fill-rule="evenodd" clip-rule="evenodd" fill="#37A157" width="47.5" height="53.5"/>
	<rect x="2518.3" y="123.9" fill-rule="evenodd" clip-rule="evenodd" fill="#40ADBD" width="13.7" height="53.5"/>
	<g>
		<path fill-rule="evenodd" clip-rule="evenodd" fill="#020302" d="M2421.4,137.6c21.7,0,39.4,17.7,39.4,39.4
			c0,21.7-17.7,39.4-39.4,39.4c-21.7,0-39.4-17.6-39.4-39.3h9.2c0.1,16.6,13.7,30.1,30.3,30.1c16.6,0,30.2-13.6,30.2-30.2
			c0-16.6-13.6-30.2-30.2-30.2c-0.1,0-0.1,0-0.1,0v-9.2C2421.3,137.6,2421.3,137.6,2421.4,137.6z"/>
	</g>
	<rect x="2419.5" y="122.2" fill-rule="evenodd" clip-rule="evenodd" fill="#020302" width="2.2" height="113"/>
	<rect x="2344.1" y="175.1" fill-rule="evenodd" clip-rule="evenodd" fill="#020302" width="350.7" height="2.2"/>
	
		<rect x="2345.2" y="314.5" transform="matrix(1 -4.307127e-003 4.307127e-003 1 -1.4455 10.2335)" fill-rule="evenodd" clip-rule="evenodd" fill="#CB3335" width="60.1" height="52.4"/>
	<rect x="2464.7" y="323.5" fill-rule="evenodd" clip-rule="evenodd" fill="#485FA4" width="48.1" height="43.2"/>
	<rect x="2537.3" y="323.5" fill-rule="evenodd" clip-rule="evenodd" fill="#C05797" width="52.3" height="43.2"/>
	<rect x="2595" y="323.5" fill-rule="evenodd" clip-rule="evenodd" fill="#CF512E" width="52" height="43.4"/>
	<rect x="2652" y="323.5" fill-rule="evenodd" clip-rule="evenodd" fill="#37A157" width="48.4" height="43.4"/>
	<rect x="2517.9" y="323.5" fill-rule="evenodd" clip-rule="evenodd" fill="#40ADBD" width="14.1" height="43.2"/>
	
		<text transform="matrix(1.6014 0 0 1 2464.8374 427.6276)" fill="#272525" font-family="'SerifGothicStd-Bold'" font-size="72.5761">Web</text>
	<text transform="matrix(1.6014 0 0 1 2700.375 175.8068)" fill="#272525" font-family="'Arkhive'" font-size="79.9936">Web</text>
	
		<text transform="matrix(1.6014 0 0 1 2971.7236 397.7467)" fill="#272525" font-family="'AdobeMyungjoStd-Medium-KSCpc-EUC-H'" font-size="72.9361">Web</text>
	<rect x="2344.1" y="-77.6" fill-rule="evenodd" clip-rule="evenodd" fill="#CB3335" width="47" height="53.5"/>
	<rect x="2466.7" y="-77.6" fill-rule="evenodd" clip-rule="evenodd" fill="#485FA4" width="47.6" height="53.5"/>
	<rect x="2535.8" y="-77.6" fill-rule="evenodd" clip-rule="evenodd" fill="#C05797" width="52" height="53.5"/>
	<rect x="2591.4" y="-77.6" fill-rule="evenodd" clip-rule="evenodd" fill="#CF512E" width="52.6" height="53.5"/>
	<rect x="2647.3" y="-77.6" fill-rule="evenodd" clip-rule="evenodd" fill="#37A157" width="47.5" height="53.5"/>
	<rect x="2518.3" y="-77.6" fill-rule="evenodd" clip-rule="evenodd" fill="#40ADBD" width="13.7" height="53.5"/>
	<g>
		<path fill-rule="evenodd" clip-rule="evenodd" fill="#020302" d="M2421.4-63.8c21.7,0,39.4,17.7,39.4,39.4
			c0,21.7-17.7,39.4-39.4,39.4c-21.7,0-39.4-17.6-39.4-39.3h9.2c0.1,16.6,13.7,30.1,30.3,30.1c16.6,0,30.2-13.6,30.2-30.2
			c0-16.6-13.6-30.2-30.2-30.2c-0.1,0-0.1,0-0.1,0v-9.2C2421.3-63.8,2421.3-63.8,2421.4-63.8z"/>
	</g>
	<rect x="2419.5" y="-79.3" fill-rule="evenodd" clip-rule="evenodd" fill="#020302" width="2.2" height="113"/>
	<rect x="2344.1" y="-26.3" fill-rule="evenodd" clip-rule="evenodd" fill="#020302" width="350.7" height="2.2"/>
	<text transform="matrix(1.6014 0 0 1 2465.792 31.3776)" fill="#272525" font-family="'SerifGothicStd-Bold'" font-size="69.0451">Web</text>
	<text transform="matrix(2.245 0 0 1 1846.4648 801.6862)" fill="#272525" font-family="'SerifGothicStd-Bold'" font-size="58.188">Web</text>
	<g>
		<path fill-rule="evenodd" clip-rule="evenodd" fill="#CB3335" d="M2421.4,327.3c21.7,0,39.4,17.7,39.4,39.4
			c0,21.7-17.7,39.4-39.4,39.4c-21.7,0-39.4-17.6-39.4-39.3h9.2c0.1,16.6,13.7,30.1,30.3,30.1c16.6,0,30.2-13.6,30.2-30.2
			c0-16.6-13.6-30.2-30.2-30.2c-0.1,0-0.1,0-0.1,0v-9.2C2421.3,327.3,2421.3,327.3,2421.4,327.3z"/>
	</g>
	<rect x="2420.8" y="313.5" fill-rule="evenodd" clip-rule="evenodd" fill="#CB3335" width="1.2" height="104.1"/>
	<rect x="2345.3" y="365.9" fill-rule="evenodd" clip-rule="evenodd" fill="#020302" width="115.5" height="1"/>
	<rect x="2464.7" y="365.9" fill-rule="evenodd" clip-rule="evenodd" fill="#020302" width="245.3" height="1"/>
	
		<rect x="1724.2" y="314.5" transform="matrix(1 -4.307127e-003 4.307127e-003 1 -1.4512 7.5588)" fill-rule="evenodd" clip-rule="evenodd" fill="#CB3335" width="60.1" height="52.4"/>
	<rect x="1843.7" y="323.5" fill-rule="evenodd" clip-rule="evenodd" fill="#2966A6" width="48.1" height="43.2"/>
	<rect x="1916.3" y="323.5" fill-rule="evenodd" clip-rule="evenodd" fill="#C20C82" width="52.3" height="43.2"/>
	<rect x="1974" y="323.5" fill-rule="evenodd" clip-rule="evenodd" fill="#B0262C" width="52" height="43.4"/>
	<rect x="2031" y="323.5" fill-rule="evenodd" clip-rule="evenodd" fill="#35A257" width="48.4" height="43.4"/>
	<rect x="1896.9" y="323.5" fill-rule="evenodd" clip-rule="evenodd" fill="#1D9CA3" width="14.1" height="43.2"/>
	<g>
		<path fill-rule="evenodd" clip-rule="evenodd" fill="#020302" d="M1800.4,327.3c21.7,0,39.4,17.7,39.4,39.4
			c0,21.7-17.7,39.4-39.4,39.4c-21.7,0-39.4-17.6-39.4-39.3h9.2c0.1,16.6,13.7,30.1,30.3,30.1c16.6,0,30.2-13.6,30.2-30.2
			c0-16.6-13.6-30.2-30.2-30.2c-0.1,0-0.1,0-0.1,0v-9.2C1800.3,327.3,1800.3,327.3,1800.4,327.3z"/>
	</g>
	<g>
		<path fill-rule="evenodd" clip-rule="evenodd" fill="#020302" d="M1800.4,346c11.4,0,20.7,9.3,20.7,20.7
			c0,11.4-9.3,20.7-20.7,20.7c-11.4,0-20.7-9.3-20.7-20.7h4.8c0.1,8.7,7.2,15.8,15.9,15.8c8.7,0,15.9-7.1,15.9-15.9
			c0-8.7-7.2-15.9-15.9-15.9c0,0-0.1,0-0.1,0L1800.4,346C1800.3,346,1800.3,346,1800.4,346z"/>
	</g>
	<rect x="1799.8" y="313.5" fill-rule="evenodd" clip-rule="evenodd" fill="#020302" width="1.2" height="104.1"/>
	<rect x="1724.3" y="365.9" fill-rule="evenodd" clip-rule="evenodd" fill="#020302" width="115.5" height="1"/>
	<rect x="1843.7" y="365.9" fill-rule="evenodd" clip-rule="evenodd" fill="#020302" width="235.7" height="1"/>
	<g>
		<path fill="#272525" d="M1935.1,197.9l-15.4,36.6h-25.4l-4.4-10.6l-4.4,10.6H1860l-15.4-36.6h23.7l4.4,10.6l4.4-10.6h25.4
			l4.4,10.6l4.4-10.6H1935.1z M1932.3,199.3h-19.2l-6.1,14.5l-6.1-14.5h-22.1l-6.2,14.5l-6.1-14.5h-19.2l14.3,33.9h22.1l6.1-14.5
			l6.1,14.5h22.1L1932.3,199.3z"/>
		<path fill="#272525" d="M1995.6,234.5H1937v-36.6h58.6v12h-35.7v1.1h21.4v10.3h-21.4v1.1h35.7V234.5z M1993.4,233.2v-9.4h-35.7
			V220h21.4v-7.6h-21.4v-3.8h35.7v-9.4h-54.3v33.9H1993.4z"/>
		<path fill="#272525" d="M2059.9,223.7c0,3.2-2.2,5.8-6.7,7.9c-4.1,1.9-8.8,2.9-14,2.9h-41.4v-36.6h37.9c5.3,0,10,1,14.1,2.9
			c4.4,2.1,6.6,4.8,6.6,8c0,2.3-1.1,4.3-3.2,6.2C2057.6,217.3,2059.9,220.1,2059.9,223.7z M2057.7,223.7c0-3.4-2.6-6.1-7.7-8.3
			c2.8-2.1,4.1-4.3,4.1-6.5c0-2.8-2-5.2-6.1-7c-3.7-1.7-7.8-2.5-12.5-2.5h-35.7v33.9h39.3c4.6,0,8.8-0.8,12.5-2.5
			C2055.7,228.8,2057.7,226.5,2057.7,223.7z M2038.5,210c0,1-0.6,1.8-1.7,2.5c-1.1,0.7-2.5,1.1-4,1.1H2017v-7.1h15.7
			c1.5,0,2.9,0.4,4,1.1C2037.9,208.2,2038.5,209,2038.5,210z M2039.2,222.5c0,1-0.6,1.8-1.7,2.5c-1.1,0.7-2.5,1.1-4,1.1H2017v-7.1
			h16.4c1.5,0,2.9,0.4,4,1.1C2038.6,220.7,2039.2,221.5,2039.2,222.5z M2036.3,210c0-0.6-0.4-1.1-1.1-1.6c-0.7-0.4-1.5-0.7-2.5-0.7
			h-13.6v4.5h13.6c1,0,1.8-0.2,2.5-0.7C2036,211.1,2036.3,210.6,2036.3,210z M2037,222.5c0-0.6-0.4-1.1-1.1-1.6
			c-0.7-0.4-1.5-0.7-2.5-0.7h-14.3v4.5h14.3c1,0,1.8-0.2,2.5-0.7C2036.7,223.6,2037,223.1,2037,222.5z"/>
	</g>
	<g>
		<path fill-rule="evenodd" clip-rule="evenodd" fill="#020302" d="M1800.4,151.4c21.7,0,39.4,17.7,39.4,39.4
			c0,21.7-17.7,39.4-39.4,39.4c-21.7,0-39.4-17.6-39.4-39.3h9.2c0.1,16.6,13.7,30.1,30.3,30.1c16.6,0,30.2-13.6,30.2-30.2
			c0-16.6-13.6-30.2-30.2-30.2c-0.1,0-0.1,0-0.1,0v-9.2C1800.3,151.4,1800.3,151.4,1800.4,151.4z"/>
	</g>
	<rect x="1799.8" y="139.6" fill-rule="evenodd" clip-rule="evenodd" fill="#020302" width="1.2" height="104.1"/>
	<rect x="1724.3" y="190" fill-rule="evenodd" clip-rule="evenodd" fill="#020302" width="115.5" height="1"/>
	<rect x="1843.7" y="190" fill-rule="evenodd" clip-rule="evenodd" fill="#020302" width="216.2" height="1"/>
	
		<rect x="2345.2" y="512.5" transform="matrix(1 -4.313251e-003 4.313251e-003 1 -2.3016 10.2399)" fill-rule="evenodd" clip-rule="evenodd" fill="#CB3335" width="55.5" height="52.4"/>
	<rect x="2464.7" y="521.5" fill-rule="evenodd" clip-rule="evenodd" fill="#485FA4" width="48.1" height="53.5"/>
	<rect x="2537.3" y="521.5" fill-rule="evenodd" clip-rule="evenodd" fill="#C05797" width="52.3" height="53.5"/>
	<rect x="2595" y="521.5" fill-rule="evenodd" clip-rule="evenodd" fill="#CF512E" width="52" height="53.5"/>
	<rect x="2652" y="521.5" fill-rule="evenodd" clip-rule="evenodd" fill="#37A157" width="48.4" height="53.5"/>
	<rect x="2517.9" y="521.5" fill-rule="evenodd" clip-rule="evenodd" fill="#40ADBD" width="14.1" height="53.5"/>
	<g>
		<path fill-rule="evenodd" clip-rule="evenodd" fill="#020302" d="M2421.4,525.3c21.7,0,39.4,17.7,39.4,39.4
			c0,21.7-17.7,39.4-39.4,39.4c-21.7,0-39.4-17.6-39.4-39.3h9.2c0.1,16.6,13.7,30.1,30.3,30.1c16.6,0,30.2-13.6,30.2-30.2
			c0-16.6-13.6-30.2-30.2-30.2c-0.1,0-0.1,0-0.1,0v-9.2C2421.3,525.3,2421.3,525.3,2421.4,525.3z"/>
	</g>
	<g>
		<path fill-rule="evenodd" clip-rule="evenodd" fill="#020302" d="M2421.4,544c11.4,0,20.7,9.3,20.7,20.7
			c0,11.4-9.3,20.7-20.7,20.7c-11.4,0-20.7-9.3-20.7-20.7h4.8c0.1,8.7,7.2,15.8,15.9,15.8c8.7,0,15.9-7.1,15.9-15.9
			c0-8.7-7.2-15.9-15.9-15.9c0,0-0.1,0-0.1,0L2421.4,544C2421.3,544,2421.3,544,2421.4,544z"/>
	</g>
	<rect x="2420.8" y="511.5" fill-rule="evenodd" clip-rule="evenodd" fill="#020302" width="1.2" height="104.1"/>
	<rect x="2345.3" y="563.9" fill-rule="evenodd" clip-rule="evenodd" fill="#020302" width="115.5" height="1"/>
	<rect x="2464.7" y="563.9" fill-rule="evenodd" clip-rule="evenodd" fill="#020302" width="245.3" height="1"/>
	<text transform="matrix(1.6014 0 0 1 1843.6826 415.4889)" fill="#272525" font-family="'AmericanaStd'" font-size="65.3727">Web</text>
	<g>
		<path fill-rule="evenodd" clip-rule="evenodd" fill="#020302" d="M787.8,151.4c21.7,0,39.4,17.7,39.4,39.4
			c0,21.7-17.7,39.4-39.4,39.4c-21.7,0-39.4-17.6-39.4-39.3h9.2c0.1,16.6,13.7,30.1,30.3,30.1c16.6,0,30.2-13.6,30.2-30.2
			c0-16.6-13.6-30.2-30.2-30.2c-0.1,0-0.1,0-0.1,0v-9.2C787.7,151.4,787.7,151.4,787.8,151.4z"/>
	</g>
	<rect x="787.2" y="139.6" fill-rule="evenodd" clip-rule="evenodd" fill="#020302" width="1.2" height="104.1"/>
	<rect x="711.7" y="190" fill-rule="evenodd" clip-rule="evenodd" fill="#020302" width="115.5" height="1"/>
	<rect x="831.1" y="190" fill-rule="evenodd" clip-rule="evenodd" fill="#020302" width="216.2" height="1"/>
	<text transform="matrix(1.266 0 0 1 1058.2988 191.6974)" fill="#272525" font-family="'EuphemiaCAS'" font-size="60.2801">Web</text>
	
		<rect x="1277.5" y="314.5" transform="matrix(1 -4.307127e-003 4.307127e-003 1 -1.4554 5.6347)" fill-rule="evenodd" clip-rule="evenodd" fill="#272525" width="60.1" height="52.4"/>
	<rect x="1397" y="323.5" fill-rule="evenodd" clip-rule="evenodd" fill="#2966A6" width="48.1" height="43.2"/>
	<rect x="1469.6" y="323.5" fill-rule="evenodd" clip-rule="evenodd" fill="#C20C82" width="52.3" height="43.2"/>
	<rect x="1527.3" y="323.5" fill-rule="evenodd" clip-rule="evenodd" fill="#B0262C" width="52" height="43.4"/>
	<rect x="1584.3" y="323.5" fill-rule="evenodd" clip-rule="evenodd" fill="#35A257" width="48.4" height="43.4"/>
	<rect x="1450.2" y="323.5" fill-rule="evenodd" clip-rule="evenodd" fill="#1D9CA3" width="14.1" height="43.2"/>
	<g>
		<g>
			<path fill-rule="evenodd" clip-rule="evenodd" fill="#272525" d="M1353.7,327.3c21.7,0,39.4,17.7,39.4,39.4
				c0,21.7-17.7,39.4-39.4,39.4c-21.7,0-39.4-17.6-39.4-39.3h9.2c0.1,16.6,13.7,30.1,30.3,30.1c16.6,0,30.2-13.6,30.2-30.2
				c0-16.6-13.6-30.2-30.2-30.2c-0.1,0-0.1,0-0.1,0v-9.2C1353.5,327.3,1353.6,327.3,1353.7,327.3z"/>
		</g>
	</g>
	<g>
		<g>
			<path fill-rule="evenodd" clip-rule="evenodd" fill="#272525" d="M1353.6,346c11.4,0,20.7,9.3,20.7,20.7
				c0,11.4-9.3,20.7-20.7,20.7c-11.4,0-20.7-9.3-20.7-20.7h4.8c0.1,8.7,7.2,15.8,15.9,15.8c8.7,0,15.9-7.1,15.9-15.9
				c0-8.7-7.2-15.9-15.9-15.9c0,0-0.1,0-0.1,0L1353.6,346C1353.6,346,1353.6,346,1353.6,346z"/>
		</g>
	</g>
	<rect x="1353.1" y="313.5" fill-rule="evenodd" clip-rule="evenodd" fill="#020302" width="1.2" height="104.1"/>
	<rect x="1277.6" y="365.9" fill-rule="evenodd" clip-rule="evenodd" fill="#020302" width="115.5" height="1"/>
	<rect x="1397" y="365.9" fill-rule="evenodd" clip-rule="evenodd" fill="#020302" width="235.7" height="1"/>
	<text transform="matrix(1.6904 0 0 1 1396.9697 416.3493)" fill="#272525" font-family="'AmericanaStd'" font-size="61.9285">Web</text>
	
		<rect x="1724.2" y="487.6" transform="matrix(1 -4.307127e-003 4.307127e-003 1 -2.197 7.5604)" fill-rule="evenodd" clip-rule="evenodd" fill="#CB3335" width="60.1" height="52.4"/>
	<rect x="1843.7" y="496.7" fill-rule="evenodd" clip-rule="evenodd" fill="#2966A6" width="48.1" height="43.2"/>
	<rect x="1916.3" y="496.7" fill-rule="evenodd" clip-rule="evenodd" fill="#C20C82" width="52.3" height="43.2"/>
	<rect x="1974" y="496.7" fill-rule="evenodd" clip-rule="evenodd" fill="#B0262C" width="52" height="43.4"/>
	<rect x="2031" y="496.7" fill-rule="evenodd" clip-rule="evenodd" fill="#35A257" width="48.4" height="43.4"/>
	<rect x="1896.9" y="496.7" fill-rule="evenodd" clip-rule="evenodd" fill="#1D9CA3" width="14.1" height="43.2"/>
	<g>
		<path fill-rule="evenodd" clip-rule="evenodd" fill="#020302" d="M1800.4,500.4c21.7,0,39.4,17.7,39.4,39.4
			c0,21.7-17.7,39.4-39.4,39.4c-21.7,0-39.4-17.6-39.4-39.3h9.2c0.1,16.6,13.7,30.1,30.3,30.1c16.6,0,30.2-13.6,30.2-30.2
			c0-16.6-13.6-30.2-30.2-30.2c-0.1,0-0.1,0-0.1,0v-9.2C1800.3,500.4,1800.3,500.4,1800.4,500.4z"/>
	</g>
	<g>
		<path fill-rule="evenodd" clip-rule="evenodd" fill="#020302" d="M1800.4,519.1c11.4,0,20.7,9.3,20.7,20.7
			c0,11.4-9.3,20.7-20.7,20.7c-11.4,0-20.7-9.3-20.7-20.7h4.8c0.1,8.7,7.2,15.8,15.9,15.8c8.7,0,15.9-7.1,15.9-15.9
			c0-8.7-7.2-15.9-15.9-15.9c0,0-0.1,0-0.1,0L1800.4,519.1C1800.3,519.1,1800.3,519.1,1800.4,519.1z"/>
	</g>
	<rect x="1799.8" y="486.7" fill-rule="evenodd" clip-rule="evenodd" fill="#020302" width="1.2" height="104.1"/>
	<rect x="1724.3" y="539.1" fill-rule="evenodd" clip-rule="evenodd" fill="#020302" width="115.5" height="1"/>
	<rect x="1843.7" y="539.1" fill-rule="evenodd" clip-rule="evenodd" fill="#020302" width="235.7" height="1"/>
	
		<text transform="matrix(1.6014 0 0 1 1843.6821 590.0983)" fill="#272525" font-family="'BankGothic-Regular'" font-size="63.5635">Web</text>
	
		<rect x="1724.2" y="941.6" transform="matrix(1 -4.307127e-003 4.307127e-003 1 -4.1524 7.5646)" fill-rule="evenodd" clip-rule="evenodd" fill="#CB3335" width="60.1" height="52.4"/>
	<rect x="1843.7" y="950.7" fill-rule="evenodd" clip-rule="evenodd" fill="#2966A6" width="48.1" height="43.2"/>
	<rect x="1916.3" y="950.7" fill-rule="evenodd" clip-rule="evenodd" fill="#C20C82" width="52.3" height="43.2"/>
	<rect x="1974" y="950.7" fill-rule="evenodd" clip-rule="evenodd" fill="#B0262C" width="52" height="43.4"/>
	<rect x="2031" y="950.7" fill-rule="evenodd" clip-rule="evenodd" fill="#35A257" width="48.4" height="43.4"/>
	<rect x="1896.9" y="950.7" fill-rule="evenodd" clip-rule="evenodd" fill="#1D9CA3" width="14.1" height="43.2"/>
	<g>
		<path fill-rule="evenodd" clip-rule="evenodd" fill="#CB3335" d="M1800.4,954.4c21.7,0,39.4,17.7,39.4,39.4
			c0,21.7-17.7,39.4-39.4,39.4c-21.7,0-39.4-17.6-39.4-39.3h9.2c0.1,16.6,13.7,30.1,30.3,30.1c16.6,0,30.2-13.6,30.2-30.2
			c0-16.6-13.6-30.2-30.2-30.2c-0.1,0-0.1,0-0.1,0v-9.2C1800.3,954.4,1800.3,954.4,1800.4,954.4z"/>
	</g>
	<g>
		<path fill-rule="evenodd" clip-rule="evenodd" fill="#CB3335" d="M1800.4,973.1c11.4,0,20.7,9.3,20.7,20.7
			c0,11.4-9.3,20.7-20.7,20.7c-11.4,0-20.7-9.3-20.7-20.7h4.8c0.1,8.7,7.2,15.8,15.9,15.8c8.7,0,15.9-7.1,15.9-15.9
			c0-8.7-7.2-15.9-15.9-15.9c0,0-0.1,0-0.1,0L1800.4,973.1C1800.3,973.1,1800.3,973.1,1800.4,973.1z"/>
	</g>
	<rect x="1799.8" y="940.7" fill-rule="evenodd" clip-rule="evenodd" fill="#020302" width="1.2" height="104.1"/>
	<rect x="1724.3" y="993.1" fill-rule="evenodd" clip-rule="evenodd" fill="#020302" width="115.5" height="1"/>
	<rect x="1843.7" y="993.1" fill-rule="evenodd" clip-rule="evenodd" fill="#020302" width="235.7" height="1"/>
	
		<text transform="matrix(1.6014 0 0 1 1843.6821 1044.0983)" fill="#272525" font-family="'BankGothic-Regular'" font-size="63.5635">Web</text>
	
		<rect x="1268.2" y="487.6" transform="matrix(1 -4.307127e-003 4.307127e-003 1 -2.2012 5.5963)" fill-rule="evenodd" clip-rule="evenodd" fill="#CB3335" width="60.1" height="52.4"/>
	<rect x="1387.7" y="496.7" fill-rule="evenodd" clip-rule="evenodd" fill="#2966A6" width="48.1" height="43.2"/>
	<rect x="1460.3" y="496.7" fill-rule="evenodd" clip-rule="evenodd" fill="#C20C82" width="52.3" height="43.2"/>
	<rect x="1518" y="496.7" fill-rule="evenodd" clip-rule="evenodd" fill="#B0262C" width="52" height="43.4"/>
	<rect x="1575" y="496.7" fill-rule="evenodd" clip-rule="evenodd" fill="#35A257" width="48.4" height="43.4"/>
	<rect x="1440.9" y="496.7" fill-rule="evenodd" clip-rule="evenodd" fill="#1D9CA3" width="14.1" height="43.2"/>
	<g>
		<path fill-rule="evenodd" clip-rule="evenodd" fill="#020302" d="M1344.4,500.4c21.7,0,39.4,17.7,39.4,39.4
			c0,21.7-17.7,39.4-39.4,39.4c-21.7,0-39.4-17.6-39.4-39.3h9.2c0.1,16.6,13.7,30.1,30.3,30.1c16.6,0,30.2-13.6,30.2-30.2
			c0-16.6-13.6-30.2-30.2-30.2c-0.1,0-0.1,0-0.1,0v-9.2C1344.3,500.4,1344.3,500.4,1344.4,500.4z"/>
	</g>
	<g>
		<path fill-rule="evenodd" clip-rule="evenodd" fill="#020302" d="M1344.4,519.1c11.4,0,20.7,9.3,20.7,20.7
			c0,11.4-9.3,20.7-20.7,20.7c-11.4,0-20.7-9.3-20.7-20.7h4.8c0.1,8.7,7.2,15.8,15.9,15.8c8.7,0,15.9-7.1,15.9-15.9
			c0-8.7-7.2-15.9-15.9-15.9c0,0-0.1,0-0.1,0L1344.4,519.1C1344.3,519.1,1344.3,519.1,1344.4,519.1z"/>
	</g>
	<rect x="1343.8" y="486.7" fill-rule="evenodd" clip-rule="evenodd" fill="#020302" width="1.2" height="104.1"/>
	<rect x="1268.3" y="539.1" fill-rule="evenodd" clip-rule="evenodd" fill="#020302" width="115.5" height="1"/>
	<rect x="1387.7" y="539.1" fill-rule="evenodd" clip-rule="evenodd" fill="#020302" width="235.7" height="1"/>
	
		<text transform="matrix(1.6014 0 0 1 1387.6821 590.0983)" fill="#272525" font-family="'BankGothic-Regular'" font-size="63.5635">Web</text>
	
		<text transform="matrix(1.6014 0 0 1 2345.0508 917.4479)" fill="#272525" font-family="'BankGothic-Regular'" font-size="61.9906">Web</text>
	
		<rect x="1724.2" y="699.6" transform="matrix(1 -4.307127e-003 4.307127e-003 1 -3.1101 7.5623)" fill-rule="evenodd" clip-rule="evenodd" fill="#CB3335" width="60.1" height="52.4"/>
	<rect x="1843.7" y="708.7" fill-rule="evenodd" clip-rule="evenodd" fill="#2966A6" width="54.3" height="43.2"/>
	<rect x="1932.3" y="708.7" fill-rule="evenodd" clip-rule="evenodd" fill="#C20C82" width="60.2" height="43.2"/>
	<rect x="1999" y="708.7" fill-rule="evenodd" clip-rule="evenodd" fill="#B0262C" width="58.5" height="43.4"/>
	<rect x="2064" y="708.7" fill-rule="evenodd" clip-rule="evenodd" fill="#35A257" width="54" height="43.4"/>
	<rect x="1904.8" y="708.7" fill-rule="evenodd" clip-rule="evenodd" fill="#1D9CA3" width="20.3" height="43.2"/>
	<g>
		<path fill-rule="evenodd" clip-rule="evenodd" fill="#CB3335" d="M1800.4,712.4c21.7,0,39.4,17.7,39.4,39.4
			c0,21.7-17.7,39.4-39.4,39.4c-21.7,0-39.4-17.6-39.4-39.3h9.2c0.1,16.6,13.7,30.1,30.3,30.1c16.6,0,30.2-13.6,30.2-30.2
			c0-16.6-13.6-30.2-30.2-30.2c-0.1,0-0.1,0-0.1,0v-9.2C1800.3,712.4,1800.3,712.4,1800.4,712.4z"/>
	</g>
	<g>
		<path fill-rule="evenodd" clip-rule="evenodd" fill="#CB3335" d="M1800.4,731.1c11.4,0,20.7,9.3,20.7,20.7
			c0,11.4-9.3,20.7-20.7,20.7c-11.4,0-20.7-9.3-20.7-20.7h4.8c0.1,8.7,7.2,15.8,15.9,15.8c8.7,0,15.9-7.1,15.9-15.9
			c0-8.7-7.2-15.9-15.9-15.9c0,0-0.1,0-0.1,0L1800.4,731.1C1800.3,731.1,1800.3,731.1,1800.4,731.1z"/>
	</g>
	<rect x="1799.8" y="698.7" fill-rule="evenodd" clip-rule="evenodd" fill="#020302" width="1.2" height="104.1"/>
	<rect x="1724.3" y="751.1" fill-rule="evenodd" clip-rule="evenodd" fill="#020302" width="115.5" height="1"/>
	<rect x="1843.7" y="751.1" fill-rule="evenodd" clip-rule="evenodd" fill="#020302" width="274.3" height="1"/>
</g>
<g id="Layer_4">
	
		<text transform="matrix(0.7029 0 0 1 2346.3496 170.8801)" fill="#FFFFFF" font-family="'N-Gage'" font-size="61.0228" letter-spacing="5.7">H</text>
	
		<text transform="matrix(0.7029 0 0 1 2346.3496 -30.5653)" fill="#FFFFFF" font-family="'N-Gage'" font-size="61.0228" letter-spacing="5.7">H</text>
</g>
<g id="Layer_3">
	
		<text transform="matrix(0.7029 0 0 1 2363.3496 170.8801)" fill="#FFFFFF" font-family="'N-Gage'" font-size="61.0228" letter-spacing="8.5">     rizon</text>
	
		<text transform="matrix(0.7029 0 0 1 2363.3496 -30.5653)" fill="#FFFFFF" font-family="'N-Gage'" font-size="61.0228" letter-spacing="8.5">     rizon</text>
</g>
<g id="Layer_2">
	
		<text transform="matrix(0.7029 0 0 1 2467.3496 364.8864)" fill="#FFFFFF" font-family="'N-Gage'" font-size="61.0228" letter-spacing="11.4">rizon</text>
	
		<text transform="matrix(0.7029 0 0 1 2348.3491 365.9079)" fill="#FFFFFF" font-family="'N-Gage'" font-size="61.0228" letter-spacing="5.7">H</text>
	
		<text transform="matrix(0.7029 0 0 1 1846.3496 364.8864)" fill="#FFFFFF" font-family="'N-Gage'" font-size="61.0228" letter-spacing="11.4">rizon</text>
	
		<text transform="matrix(0.7029 0 0 1 1727.3491 365.9079)" fill="#FFFFFF" font-family="'N-Gage'" font-size="61.0228" letter-spacing="5.7">H</text>
	
		<text transform="matrix(0.7029 0 0 1 1399.6367 364.8864)" fill="#FFFFFF" font-family="'N-Gage'" font-size="61.0228" letter-spacing="11.4">rizon</text>
	
		<text transform="matrix(0.7029 0 0 1 1280.6362 365.9079)" fill="#FFFFFF" font-family="'N-Gage'" font-size="61.0228" letter-spacing="5.7">H</text>
	
		<text transform="matrix(0.7029 0 0 1 1846.3496 538.0329)" fill="#FFFFFF" font-family="'N-Gage'" font-size="61.0228" letter-spacing="11.4">rizon</text>
	
		<text transform="matrix(0.7029 0 0 1 1389.6831 538.0329)" fill="#FFFFFF" font-family="'N-Gage'" font-size="61.0228" letter-spacing="11.4">rizon</text>
	
		<text transform="matrix(0.7029 0 0 1 1727.3491 539.0544)" fill="#FFFFFF" font-family="'N-Gage'" font-size="61.0228" letter-spacing="5.7">H</text>
	
		<text transform="matrix(0.7029 0 0 1 1846.3496 992.0329)" fill="#FFFFFF" font-family="'N-Gage'" font-size="61.0228" letter-spacing="11.4">rizon</text>
	
		<text transform="matrix(0.7029 0 0 1 1727.3491 993.0544)" fill="#FFFFFF" font-family="'N-Gage'" font-size="61.0228" letter-spacing="5.7">H</text>
	
		<text transform="matrix(0.7029 0 0 1 1270.3491 539.0544)" fill="#FFFFFF" font-family="'N-Gage'" font-size="61.0228" letter-spacing="5.7">H</text>
	
		<text transform="matrix(0.7029 0 0 1 1846.3496 750.0329)" fill="#FFFFFF" font-family="'N-Gage'" font-size="61.0228" letter-spacing="22.8">rizon</text>
	
		<text transform="matrix(0.7029 0 0 1 1727.3491 751.0544)" fill="#FFFFFF" font-family="'N-Gage'" font-size="61.0228" letter-spacing="5.7">H</text>
	<g>
		
			<text transform="matrix(0.7029 0 0 1 1846.3496 187.0036)" fill="#25AABA" font-family="'N-Gage'" font-size="61.0228" letter-spacing="5.7">rizon</text>
	</g>
	
		<text transform="matrix(0.7029 0 0 1 1727.3491 187.0251)" fill="#25AABA" font-family="'N-Gage'" font-size="61.0228" letter-spacing="5.7">H</text>
	<g>
		
			<text transform="matrix(0.7029 0 0 1 833.7593 187.0036)" fill="#25AABA" font-family="'N-Gage'" font-size="61.0228" letter-spacing="5.7">rizon</text>
	</g>
	
		<text transform="matrix(0.7029 0 0 1 714.7588 187.0251)" fill="#25AABA" font-family="'N-Gage'" font-size="61.0228" letter-spacing="5.7">H</text>
	
		<text transform="matrix(0.7029 0 0 1 2467.3496 562.8864)" fill="#FFFFFF" font-family="'N-Gage'" font-size="61.0228" letter-spacing="11.4">rizon</text>
	
		<text transform="matrix(0.7029 0 0 1 2348.3491 563.9079)" fill="#FFFFFF" font-family="'N-Gage'" font-size="61.0228" letter-spacing="5.7">H</text>
</g>
<g id="Layer_6">
</g>
<g id="Layer_5">
	<g>
		<path fill-rule="evenodd" clip-rule="evenodd" fill="#272525" d="M32,33.6c6.7,0,12.3-5.5,12.3-12.3c0-6.7-5.5-12.3-12.3-12.3
			c0,0,0,0,0,0V5.4c0,0,0,0,0,0c8.8,0,16,7.2,16,16c0,8.8-7.2,16-16,16V33.6z"/>
	</g>
	<rect x="31.8" y="0.6" fill-rule="evenodd" clip-rule="evenodd" fill="#272525" width="0.5" height="42.2"/>
	<rect x="1.2" y="21" fill-rule="evenodd" clip-rule="evenodd" fill="#272525" width="206.3" height="0.4"/>
	
		<text transform="matrix(0.7029 0 0 1 140.8691 19.8161)" fill="#272525" font-family="'N-Gage'" font-size="24.748" letter-spacing="1.4">Web</text>
	<g>
		
			<text transform="matrix(0.7029 0 0 1 50.6631 19.8073)" fill="#009DE3" font-family="'N-Gage'" font-size="24.748" letter-spacing="1.4">rizon</text>
	</g>
	
		<text transform="matrix(0.7029 0 0 1 2.4028 19.8161)" fill="#009DE3" font-family="'N-Gage'" font-size="24.748" letter-spacing="1.4">H</text>
	<g>
		<path fill-rule="evenodd" clip-rule="evenodd" fill="#009DE3" d="M31.8,37.3c-9-0.2-15.8-7.1-15.8-15.9h3.7
			c0.2,6.9,5.4,11.9,12.1,12.1V37.3z"/>
	</g>
</g>
<g id="Layer_7">
</g>
</svg>
